<?xml version="1.0" encoding="UTF-8"?>
<svg xmlns="http://www.w3.org/2000/svg" width="160" height="39" viewBox="0 0 160 39" fill="none">
  <path fill-rule="evenodd" clip-rule="evenodd" d="M0.630369 13.2281C1.45868 8.19528 4.25233 3.69764 8.39676 0.724609L10.8139 4.09409C7.56309 6.42606 5.37181 9.9539 4.72211 13.9015C4.07241 17.8491 5.0175 21.8931 7.34947 25.1439C9.68144 28.3947 13.2093 30.586 17.1569 31.2357C21.1034 31.8852 25.2001 30.9918 28.4505 28.6612L28.4531 28.6591L34.2226 36.1594L31.1455 38.2748L27.7208 33.7872C24.2398 35.4071 20.3258 35.9598 16.4835 35.3274C11.4507 34.4991 6.95302 31.7055 3.97999 27.561C1.00696 23.4166 -0.197937 18.2609 0.630369 13.2281Z" fill="#F8F9FC"></path>
  <path d="M27.4305 24.845C30.3216 22.3027 31.4427 18.0682 31.1639 15.2354C30.8851 12.4025 29.5653 9.77155 27.4585 7.84841C25.3516 5.92527 22.6063 4.84569 19.7504 4.81725C16.8946 4.78881 14.1297 5.81351 11.9876 7.69433C9.84538 9.57515 8.47707 12.1793 8.14572 15.0061C7.81437 17.8329 8.54337 20.6828 10.1926 23.0078C11.8417 25.3328 14.2947 26.9687 17.0798 27.6011C21.0805 28.5096 24.4799 27.0068 26.5784 25.5311C24.5495 24.0559 21.8074 24.1722 19.302 24.0449C18.8504 24.022 18.394 23.9581 17.9339 23.8536C16.0767 23.4319 14.441 22.341 13.3413 20.7906C12.2415 19.2403 11.7554 17.3399 11.9764 15.4549C12.1973 13.5699 13.1097 11.8333 14.5382 10.5791C15.9667 9.32495 17.8104 8.64165 19.7148 8.66062C21.6191 8.67958 23.4498 9.39948 24.8547 10.6819C26.2597 11.9643 27.1397 13.7187 27.3256 15.6077C27.3606 16.2147 27.3542 16.7998 27.2854 17.3739C26.9844 19.8834 26.3687 22.5513 27.4305 24.845Z" fill="#717BBC"></path>
  <circle cx="19.6112" cy="16.3599" r="3.8463" transform="rotate(-38.8432 19.6112 16.3599)" fill="#717BBC"></circle>
  <path d="M43.0884 28.122V10.5914H49.2242L52.2545 25.8681H52.7052L55.7355 10.5914H61.8713V28.122H58.6657V13.0206H58.2149L55.2096 28.122H49.7501L46.7448 13.0206H46.294V28.122H43.0884ZM69.5692 28.4726C68.6843 28.4726 67.8913 28.3224 67.19 28.0218C66.4888 27.7046 65.9295 27.2538 65.5121 26.6695C65.1114 26.0684 64.9111 25.3422 64.9111 24.4907C64.9111 23.6392 65.1114 22.9296 65.5121 22.362C65.9295 21.7776 66.4972 21.3435 67.2151 21.0597C67.9497 20.7592 68.7845 20.6089 69.7195 20.6089H73.1254V19.9077C73.1254 19.3233 72.9418 18.8475 72.5745 18.4802C72.2071 18.0962 71.6228 17.9042 70.8214 17.9042C70.0367 17.9042 69.4523 18.0878 69.0683 18.4551C68.6843 18.8057 68.4339 19.2649 68.317 19.8325L65.4119 18.8558C65.6123 18.2214 65.9295 17.6454 66.3636 17.1278C66.8144 16.5935 67.4071 16.1678 68.1417 15.8506C68.893 15.5167 69.8029 15.3497 70.8715 15.3497C72.5077 15.3497 73.8016 15.7588 74.7533 16.5769C75.7049 17.3949 76.1808 18.5804 76.1808 20.1331V24.7662C76.1808 25.267 76.4145 25.5175 76.882 25.5175H77.8837V28.122H75.7801C75.1623 28.122 74.6531 27.9718 74.2524 27.6712C73.8517 27.3707 73.6513 26.97 73.6513 26.4691V26.4441H73.1755C73.1087 26.6444 72.9585 26.9116 72.7247 27.2455C72.491 27.5627 72.1237 27.8465 71.6228 28.097C71.1219 28.3474 70.4374 28.4726 69.5692 28.4726ZM70.1202 25.9182C71.005 25.9182 71.723 25.6761 72.2739 25.1919C72.8416 24.691 73.1254 24.0315 73.1254 23.2134V22.963H69.9449C69.3605 22.963 68.9014 23.0882 68.5675 23.3387C68.2335 23.5891 68.0666 23.9397 68.0666 24.3905C68.0666 24.8413 68.2419 25.2086 68.5925 25.4924C68.9431 25.7763 69.4523 25.9182 70.1202 25.9182ZM80.6302 33.1308V15.7003H83.7357V17.2029H84.1865C84.4703 16.7188 84.9127 16.293 85.5138 15.9257C86.1148 15.5417 86.9747 15.3497 88.0933 15.3497C89.095 15.3497 90.0217 15.6001 90.8731 16.101C91.7246 16.5852 92.4092 17.3031 92.9267 18.2548C93.4443 19.2064 93.7031 20.3585 93.7031 21.7108V22.1115C93.7031 23.4639 93.4443 24.6159 92.9267 25.5676C92.4092 26.5192 91.7246 27.2455 90.8731 27.7464C90.0217 28.2305 89.095 28.4726 88.0933 28.4726C87.342 28.4726 86.7075 28.3808 86.19 28.1972C85.6891 28.0302 85.28 27.8132 84.9628 27.546C84.6623 27.2622 84.4202 26.9784 84.2366 26.6945H83.7858V33.1308H80.6302ZM87.1416 25.7178C88.1267 25.7178 88.9364 25.409 89.5709 24.7912C90.222 24.1568 90.5476 23.2385 90.5476 22.0364V21.786C90.5476 20.5839 90.222 19.6739 89.5709 19.0562C88.9197 18.4217 88.11 18.1045 87.1416 18.1045C86.1733 18.1045 85.3635 18.4217 84.7124 19.0562C84.0612 19.6739 83.7357 20.5839 83.7357 21.786V22.0364C83.7357 23.2385 84.0612 24.1568 84.7124 24.7912C85.3635 25.409 86.1733 25.7178 87.1416 25.7178ZM97.0399 33.1308V15.7003H100.145V17.2029H100.596C100.88 16.7188 101.322 16.293 101.923 15.9257C102.524 15.5417 103.384 15.3497 104.503 15.3497C105.505 15.3497 106.431 15.6001 107.283 16.101C108.134 16.5852 108.819 17.3031 109.336 18.2548C109.854 19.2064 110.113 20.3585 110.113 21.7108V22.1115C110.113 23.4639 109.854 24.6159 109.336 25.5676C108.819 26.5192 108.134 27.2455 107.283 27.7464C106.431 28.2305 105.505 28.4726 104.503 28.4726C103.752 28.4726 103.117 28.3808 102.6 28.1972C102.099 28.0302 101.69 27.8132 101.372 27.546C101.072 27.2622 100.83 26.9784 100.646 26.6945H100.195V33.1308H97.0399ZM103.551 25.7178C104.536 25.7178 105.346 25.409 105.981 24.7912C106.632 24.1568 106.957 23.2385 106.957 22.0364V21.786C106.957 20.5839 106.632 19.6739 105.981 19.0562C105.329 18.4217 104.52 18.1045 103.551 18.1045C102.583 18.1045 101.773 18.4217 101.122 19.0562C100.471 19.6739 100.145 20.5839 100.145 21.786V22.0364C100.145 23.2385 100.471 24.1568 101.122 24.7912C101.773 25.409 102.583 25.7178 103.551 25.7178ZM113.45 28.122V15.7003H116.605V28.122H113.45ZM115.027 14.2478C114.46 14.2478 113.975 14.0641 113.575 13.6968C113.191 13.3295 112.999 12.8453 112.999 12.2443C112.999 11.6432 113.191 11.1591 113.575 10.7917C113.975 10.4244 114.46 10.2408 115.027 10.2408C115.612 10.2408 116.096 10.4244 116.48 10.7917C116.864 11.1591 117.056 11.6432 117.056 12.2443C117.056 12.8453 116.864 13.3295 116.48 13.6968C116.096 14.0641 115.612 14.2478 115.027 14.2478ZM125.299 28.122C124.481 28.122 123.814 27.8716 123.296 27.3707C122.795 26.8531 122.545 26.1686 122.545 25.3171V18.3049H119.439V15.7003H122.545V11.8436H125.7V15.7003H129.106V18.3049H125.7V24.7662C125.7 25.267 125.934 25.5175 126.401 25.5175H128.806V28.122H125.299ZM136.259 28.4726C135.374 28.4726 134.581 28.3224 133.879 28.0218C133.178 27.7046 132.619 27.2538 132.202 26.6695C131.801 26.0684 131.6 25.3422 131.6 24.4907C131.6 23.6392 131.801 22.9296 132.202 22.362C132.619 21.7776 133.187 21.3435 133.904 21.0597C134.639 20.7592 135.474 20.6089 136.409 20.6089H139.815V19.9077C139.815 19.3233 139.631 18.8475 139.264 18.4802C138.897 18.0962 138.312 17.9042 137.511 17.9042C136.726 17.9042 136.142 18.0878 135.758 18.4551C135.374 18.8057 135.123 19.2649 135.006 19.8325L132.101 18.8558C132.302 18.2214 132.619 17.6454 133.053 17.1278C133.504 16.5935 134.096 16.1678 134.831 15.8506C135.582 15.5167 136.492 15.3497 137.561 15.3497C139.197 15.3497 140.491 15.7588 141.443 16.5769C142.394 17.3949 142.87 18.5804 142.87 20.1331V24.7662C142.87 25.267 143.104 25.5175 143.571 25.5175H144.573V28.122H142.469C141.852 28.122 141.342 27.9718 140.942 27.6712C140.541 27.3707 140.341 26.97 140.341 26.4691V26.4441H139.865C139.798 26.6444 139.648 26.9116 139.414 27.2455C139.18 27.5627 138.813 27.8465 138.312 28.097C137.811 28.3474 137.127 28.4726 136.259 28.4726ZM136.81 25.9182C137.694 25.9182 138.412 25.6761 138.963 25.1919C139.531 24.691 139.815 24.0315 139.815 23.2134V22.963H136.634C136.05 22.963 135.591 23.0882 135.257 23.3387C134.923 23.5891 134.756 23.9397 134.756 24.3905C134.756 24.8413 134.931 25.2086 135.282 25.4924C135.633 25.7763 136.142 25.9182 136.81 25.9182ZM147.32 28.122V10.5914H150.475V28.122H147.32ZM154.411 28.122V10.5914H157.567V28.122H154.411Z" fill="#F8F9FC"></path>
</svg>
