<svg width="64" height="65" viewBox="0 0 64 65" fill="none" xmlns="http://www.w3.org/2000/svg">
<rect width="64" height="64" rx="12" transform="matrix(-1 0 0 1 64 0.666626)" fill="#F2F4F7"/>
<g clip-path="url(#clip0_124_129)">
<path d="M42.3525 46.7827H46.117V48.6649H42.3525V46.7827Z" fill="#081538"/>
<path d="M36.7061 46.7827H40.4706V48.6649H36.7061V46.7827Z" fill="#081538"/>
<path d="M17.8833 46.7827H21.6478V48.6649H17.8833V46.7827Z" fill="#081538"/>
<path d="M23.5303 46.7827H27.2948V48.6649H23.5303V46.7827Z" fill="#081538"/>
<path d="M32.0002 28.9013C32.52 28.9013 32.9413 28.4799 32.9413 27.9601C32.9413 27.4404 32.52 27.019 32.0002 27.019C31.4804 27.019 31.0591 27.4404 31.0591 27.9601C31.0591 28.4799 31.4804 28.9013 32.0002 28.9013Z" fill="#081538"/>
<path d="M32.0003 30.7835C30.4676 30.7835 29.1961 32.0113 29.1777 33.573C30.8888 34.5888 33.0575 34.6211 34.8229 33.573C34.8045 32.0318 33.5458 30.7835 32.0003 30.7835Z" fill="#081538"/>
<path d="M44.2349 28.9013C44.2349 22.1551 38.7465 16.6666 32.0003 16.6666C25.2541 16.6666 19.7656 22.1551 19.7656 28.9013C19.7656 31.6938 21.7276 35.7617 25.5969 40.9916C28.419 44.8061 31.2824 47.8946 31.311 47.9254L32.0002 48.6667L32.6894 47.9254C32.718 47.8947 35.5814 44.8061 38.4035 40.9916C42.273 35.7617 44.2349 31.6938 44.2349 28.9013ZM32.0003 36.2291C27.9042 36.2291 24.5719 32.8967 24.5719 28.8007C24.5718 24.7045 27.9042 21.3723 32.0003 21.3723C36.0963 21.3723 39.4286 24.7045 39.4286 28.8006C39.4286 32.8967 36.0963 36.2291 32.0003 36.2291Z" fill="#081538"/>
<path d="M32.0002 23.2545C28.9421 23.2545 26.4541 25.7425 26.4541 28.8006C26.4541 30.0339 26.859 31.1744 27.5425 32.0964C27.9089 31.0118 28.661 30.1004 29.6533 29.5275C29.3526 29.0788 29.1769 28.5396 29.1769 27.9601C29.1769 26.4033 30.4435 25.1367 32.0003 25.1367C33.5572 25.1367 34.8237 26.4033 34.8237 27.9601C34.8237 28.5406 34.6473 29.0807 34.3457 29.5299C35.3279 30.0972 36.0866 31.0085 36.4566 32.0985C37.141 31.1761 37.5465 30.0348 37.5465 28.8006C37.5463 25.7425 35.0584 23.2545 32.0002 23.2545Z" fill="#081538"/>
</g>
<defs>
<clipPath id="clip0_124_129">
<rect width="32" height="32" fill="white" transform="translate(16 16.6666)"/>
</clipPath>
</defs>
</svg>
