<svg width="64" height="65" viewBox="0 0 64 65" fill="none" xmlns="http://www.w3.org/2000/svg">
<rect width="64" height="64" rx="12" transform="matrix(-1 0 0 1 64 0.666626)" fill="#F2F4F7"/>
<path d="M33.875 18.6041H37.625V25.1666H33.875V18.6041Z" fill="#081538"/>
<path d="M47.0625 18.6041H39.5V26.1041C39.5 26.6219 39.0802 27.0416 38.5625 27.0416H32.9375C32.4198 27.0416 32 26.6219 32 26.1041V18.6041H24.5C23.9822 18.6041 23.5625 19.0239 23.5625 19.5416V30.8413C23.8712 30.7961 24.1844 30.7727 24.5 30.7727C26.2279 30.7727 27.8855 31.4669 29.0994 32.6666H32.9375C35.0052 32.6666 36.6875 34.3488 36.6875 36.4166C36.6875 38.4843 35.0052 40.1666 32.9375 40.1666H39.5C41.2441 40.1666 42.714 41.3635 43.1313 42.9791H47.0625C47.5802 42.9791 48 42.5593 48 42.0416V19.5416C48 19.0239 47.5802 18.6041 47.0625 18.6041Z" fill="#081538"/>
<path d="M39.5 42.0416H31.0625C28.9914 42.0416 27.3125 40.3627 27.3125 38.2916H32.9375C33.9731 38.2916 34.8125 37.4522 34.8125 36.4166C34.8125 35.3811 33.9731 34.5416 32.9375 34.5416H28.25C27.3717 33.3507 25.9798 32.6478 24.5 32.6478C23.0202 32.6478 21.6283 33.3507 20.75 34.5416H19.8125V33.9166C19.8125 33.3989 19.3928 32.9791 18.875 32.9791H16.9375C16.4197 32.9791 16 33.3989 16 33.9166V45.7916C16 46.3094 16.4197 46.7291 16.9375 46.7291H18.875C19.3928 46.7291 19.8125 46.3094 19.8125 45.7916V43.9166H20.75L26.625 45.7916H39.5C40.5356 45.7916 41.375 44.9522 41.375 43.9166C41.375 42.8811 40.5356 42.0416 39.5 42.0416Z" fill="#081538"/>
</svg>
