<svg width="64" height="65" viewBox="0 0 64 65" fill="none" xmlns="http://www.w3.org/2000/svg">
<rect width="64" height="64" rx="12" transform="matrix(-1 0 0 1 64 0.666626)" fill="#F2F4F7"/>
<path d="M24.9054 21.446L23.3564 23.0336L23.7231 25.2796C23.7438 25.4056 23.6901 25.5323 23.5861 25.606C23.5284 25.646 23.4611 25.6666 23.3938 25.6666C23.3384 25.6666 23.2828 25.653 23.2328 25.625L21.3334 24.5756L19.4344 25.625C19.3234 25.6873 19.1858 25.679 19.0811 25.6056C18.9768 25.532 18.9234 25.4053 18.9441 25.2793L19.3108 23.0333L17.7618 21.4456C17.6744 21.356 17.6444 21.2256 17.6844 21.107C17.7244 20.9883 17.8268 20.9023 17.9501 20.8833L20.0778 20.558L21.0321 18.5243C21.0868 18.4083 21.2041 18.3333 21.3334 18.3333C21.4628 18.3333 21.5801 18.4083 21.6351 18.525L22.5894 20.5586L24.7171 20.884C24.8404 20.903 24.9431 20.989 24.9828 21.1076C25.0224 21.2263 24.9928 21.3563 24.9054 21.446ZM35.6494 21.1073C35.6098 20.989 35.5071 20.9026 35.3838 20.8836L33.2561 20.5583L32.3018 18.5246C32.2468 18.4083 32.1294 18.3333 32.0001 18.3333C31.8708 18.3333 31.7534 18.4083 31.6984 18.525L30.7441 20.5586L28.6164 20.884C28.4931 20.903 28.3904 20.989 28.3508 21.1076C28.3111 21.2263 28.3411 21.3566 28.4281 21.4463L29.9771 23.034L29.6104 25.28C29.5898 25.406 29.6434 25.5326 29.7474 25.6063C29.8518 25.6796 29.9894 25.6876 30.1008 25.6256L32.0001 24.5756L33.8991 25.625C33.9494 25.653 34.0051 25.6666 34.0604 25.6666C34.1278 25.6666 34.1951 25.646 34.2524 25.6056C34.3568 25.532 34.4101 25.4053 34.3894 25.2793L34.0228 23.0333L35.5718 21.4456C35.6594 21.3563 35.6891 21.226 35.6494 21.1073ZM46.3161 21.1073C46.2764 20.989 46.1738 20.9026 46.0504 20.8836L43.9228 20.5583L42.9684 18.5246C42.9134 18.4083 42.7961 18.3333 42.6668 18.3333C42.5374 18.3333 42.4201 18.4083 42.3651 18.525L41.4108 20.5586L39.2831 20.884C39.1598 20.903 39.0571 20.989 39.0174 21.1076C38.9778 21.2263 39.0078 21.3566 39.0948 21.4463L40.6438 23.034L40.2771 25.28C40.2564 25.406 40.3101 25.5326 40.4141 25.6063C40.5184 25.6796 40.6561 25.6876 40.7674 25.6256L42.6668 24.5756L44.5658 25.625C44.6161 25.653 44.6718 25.6666 44.7271 25.6666C44.7944 25.6666 44.8618 25.646 44.9191 25.6056C45.0234 25.532 45.0768 25.4053 45.0561 25.2793L44.6894 23.0333L46.2384 21.4456C46.3261 21.3563 46.3558 21.226 46.3161 21.1073ZM40.2301 34.016C39.7638 33.951 39.3354 34.088 39.0001 34.3416V34.3333C39.0001 33.671 38.6174 33.0503 38.0034 32.8016C37.3188 32.5246 36.6704 32.699 36.2264 33.0966C35.9924 32.459 35.3848 32 34.6668 32C34.2901 32 33.9461 32.1303 33.6668 32.342V29.4076C33.6668 28.5376 33.0324 27.7593 32.1668 27.6746C31.1734 27.5776 30.3334 28.3593 30.3334 29.3333V37.8126C30.3334 38.4153 29.5971 38.7086 29.1828 38.271L27.1788 36.1546C26.5278 35.5036 25.4728 35.5036 24.8218 36.1546C24.1708 36.8056 24.1708 37.8606 24.8218 38.5116L28.5128 43.3333L28.5131 43.333C29.7204 45.553 32.0931 47.051 34.8044 46.9986C38.6448 46.9243 41.6668 43.6703 41.6668 39.8293V35.7453C41.6668 34.8983 41.0691 34.133 40.2301 34.016Z" fill="#081538"/>
</svg>
