<svg width="65" height="65" viewBox="0 0 65 65" fill="none" xmlns="http://www.w3.org/2000/svg">
<rect width="64" height="64" rx="12" transform="matrix(-1 0 0 1 64.25 0.666626)" fill="#F2F4F7"/>
<g clip-path="url(#clip0_124_121)">
<path d="M46.7864 35.904C46.7837 35.9013 46.781 35.8986 46.7784 35.896L44.9037 34.1733C44.961 33.6666 44.989 33.1613 44.989 32.6666C44.989 32.172 44.961 31.6666 44.9037 31.16L46.7864 29.4293C47.5664 28.696 47.7464 27.5306 47.2157 26.5826L45.005 22.7586C44.4797 21.8266 43.3464 21.384 42.3064 21.708L39.877 22.4746C39.0597 21.8573 38.1864 21.3506 37.2717 20.9626L36.709 18.4653C36.4717 17.4066 35.5504 16.6666 34.4677 16.6666H30.033C28.9504 16.6666 28.029 17.4066 27.7917 18.4653L27.229 20.9626C26.3144 21.3506 25.4424 21.8573 24.6237 22.4746L22.1904 21.7066C21.1517 21.3813 20.0184 21.8266 19.501 22.748L17.2784 26.596C16.7544 27.5306 16.9344 28.696 17.7224 29.4373L19.597 31.16C19.5397 31.6666 19.5104 32.172 19.5104 32.6666C19.5104 33.1613 19.5384 33.6666 19.5957 34.1733L17.713 35.904C16.933 36.6373 16.753 37.8026 17.2837 38.7506L19.4944 42.5746C20.0184 43.5066 21.1504 43.9466 22.193 43.6253L24.6224 42.8586C25.4397 43.476 26.313 43.9826 27.2277 44.3706L27.7904 46.868C28.029 47.9266 28.9504 48.6666 30.033 48.6666H34.4677C35.5504 48.6666 36.4717 47.9266 36.709 46.868L37.2717 44.3693C38.1877 43.9813 39.0597 43.4746 39.877 42.8573L42.3104 43.6253C43.3477 43.948 44.481 43.504 44.9997 42.584L47.2237 38.7373C47.7464 37.8026 47.5664 36.6373 46.7864 35.904ZM34.9704 39.188C34.9704 40.0013 34.3037 40.668 33.477 40.668H31.0237C30.3037 40.668 29.5304 40.1346 29.5304 38.948V38.228H34.9704V39.188ZM36.0504 35.2413C35.4904 35.6946 35.1304 36.2813 35.0104 36.8946H29.5037C29.4104 36.2946 29.077 35.7346 28.5304 35.308C27.0504 34.148 26.2104 32.4013 26.2504 30.508C26.317 27.3346 28.9704 24.708 32.157 24.668C33.7704 24.628 35.317 25.2546 36.477 26.4013C37.6237 27.5213 38.2504 29.028 38.2504 30.628C38.2504 32.428 37.4517 34.108 36.0504 35.2413Z" fill="#081538"/>
</g>
<defs>
<clipPath id="clip0_124_121">
<rect width="32" height="32" fill="white" transform="translate(16.25 16.6666)"/>
</clipPath>
</defs>
</svg>
