<svg width="65" height="65" viewBox="0 0 65 65" fill="none" xmlns="http://www.w3.org/2000/svg">
<rect width="64" height="64" rx="12" transform="matrix(-1 0 0 1 64.75 0.666626)" fill="#F2F4F7"/>
<path d="M41.4058 48.6666H48.75V43.4207H41.4058V48.6666ZM45.6025 45.5191H46.6517V46.5683H45.6025V45.5191ZM43.5041 45.5191H44.5533V46.5683H43.5041V45.5191Z" fill="#081538"/>
<path d="M41.4058 37.1257V42.3716H48.75V37.1257H41.4058ZM44.5533 40.2732H43.5041V39.224H44.5533V40.2732ZM46.6517 40.2732H45.6025V39.224H46.6517V40.2732Z" fill="#081538"/>
<path d="M33.0124 30.8306H24.3247C24.5125 31.3032 24.6189 31.8173 24.6189 32.3561C24.6189 32.5491 24.6032 32.7401 24.577 32.9289H28.8157V37.2689C29.4399 36.8182 30.1481 36.482 30.914 36.2837V32.9289H48.2255V30.8306H45.6026V26.199C45.324 26.4723 44.9521 26.6338 44.5534 26.6338C44.1547 26.6338 43.7828 26.4723 43.5042 26.199V30.8306H35.1108V22.4371H21.4714V16.6666H19.373V24.5355H33.0124V30.8306Z" fill="#081538"/>
<path d="M44.174 25.3816C44.3429 25.6356 44.7631 25.6356 44.9321 25.3816L47.1799 22.0096C47.5209 21.4992 47.7008 20.9048 47.7008 20.2905C47.7008 18.5814 46.3107 17.1912 44.6016 17.1912H44.505C42.7959 17.1912 41.4058 18.5814 41.4058 20.2905C41.4058 20.9048 41.5857 21.4992 41.9262 22.0096L44.174 25.3816ZM44.5533 18.765C45.4225 18.765 46.1271 19.4695 46.1271 20.3388C46.1271 21.208 45.4225 21.9125 44.5533 21.9125C43.6841 21.9125 42.9795 21.208 42.9795 20.3388C42.9795 19.4695 43.6841 18.765 44.5533 18.765Z" fill="#081538"/>
<path d="M20.0427 37.4472C20.2116 37.7011 20.6318 37.7011 20.8007 37.4472L23.0486 34.0751C23.3896 33.5647 23.5695 32.9703 23.5695 32.3561C23.5695 30.6469 22.1793 29.2568 20.4702 29.2568H20.3737C18.6646 29.2568 17.2744 30.6469 17.2744 32.3561C17.2744 32.9703 17.4543 33.5647 17.7948 34.0751L20.0427 37.4472ZM20.422 30.8305C21.2912 30.8305 21.9957 31.5351 21.9957 32.4043C21.9957 33.2736 21.2912 33.9781 20.422 33.9781C19.5527 33.9781 18.8482 33.2736 18.8482 32.4043C18.8482 31.5351 19.5527 30.8305 20.422 30.8305Z" fill="#081538"/>
<path d="M32.4876 37.1257C29.595 37.1257 27.2417 39.479 27.2417 42.3716C27.2417 45.2642 29.595 47.6175 32.4876 47.6175C35.3802 47.6175 37.7335 45.2642 37.7335 42.3716C37.7335 39.479 35.3802 37.1257 32.4876 37.1257ZM28.8155 44.4699L32.4876 39.224L36.1597 44.4699H28.8155Z" fill="#081538"/>
<path d="M21.4713 43.9453V38.2645C21.1928 38.5378 20.8208 38.6994 20.4221 38.6994C20.0234 38.6994 19.6515 38.5378 19.373 38.2645V43.9453H16.75V46.0437H27.385C26.9344 45.4194 26.5981 44.7112 26.3998 43.9453H21.4713Z" fill="#081538"/>
</svg>
