<svg width="65" height="65" viewBox="0 0 65 65" fill="none" xmlns="http://www.w3.org/2000/svg">
<rect width="64" height="64" rx="12" transform="matrix(-1 0 0 1 64.75 0.666626)" fill="#F2F4F7"/>
<path d="M41.1097 26.1049C42.1452 26.1049 42.9846 25.2654 42.9846 24.23C42.9846 23.1945 42.1452 22.3551 41.1097 22.3551C40.0743 22.3551 39.2349 23.1945 39.2349 24.23C39.2349 25.2654 40.0743 26.1049 41.1097 26.1049Z" fill="#081538"/>
<path d="M40.6351 34.4127C40.9281 34.5847 41.2912 34.5847 41.5841 34.4127C41.8768 34.241 48.7501 30.1396 48.7501 24.3075C48.7501 20.0945 45.3226 16.667 41.1097 16.667C36.8967 16.667 33.4692 20.0945 33.4692 24.3074C33.4692 30.1396 40.3426 34.241 40.6351 34.4127ZM41.1097 20.4803C43.1772 20.4803 44.8594 22.1624 44.8594 24.23C44.8594 26.2976 43.1772 27.9797 41.1097 27.9797C39.0421 27.9797 37.36 26.2976 37.36 24.23C37.36 22.1624 39.042 20.4803 41.1097 20.4803Z" fill="#081538"/>
<path d="M25.9147 39.5035L27.1267 40.7155L31.8138 36.0283V33.0552L26.4638 27.7052C26.0977 27.3392 26.0977 26.7456 26.4638 26.3795L28.064 24.7792V19.9052C25.4157 20.5059 22.9845 21.8406 21.0171 23.8075C16.8121 28.0135 15.7493 34.0922 17.6768 39.2288H25.2519C25.5004 39.2288 25.7389 39.3277 25.9147 39.5035Z" fill="#081538"/>
<path d="M34.626 42.4294V48.2885C39.5044 47.1591 43.3074 43.6083 44.9508 39.2288H37.8265L34.626 42.4294Z" fill="#081538"/>
<path d="M42.533 36.0297C41.6553 36.5449 40.5658 36.5459 39.6864 36.0297C39.4701 35.9028 37.5203 34.7348 35.6086 32.8006C32.9825 30.1426 31.5945 27.206 31.5945 24.3075C31.5945 22.6051 32.0438 21.0059 32.83 19.6216C31.8416 19.5183 30.8755 19.5201 29.939 19.6073V25.1675C29.939 25.4161 29.8403 25.6546 29.6644 25.8304L28.4524 27.0424L33.4141 32.0041C33.5899 32.1799 33.6887 32.4183 33.6887 32.6669V36.4166C33.6887 36.6653 33.5899 36.9037 33.4141 37.0795L27.7896 42.7041C27.4236 43.0701 26.8299 43.0702 26.4639 42.7041L24.8636 41.1038H18.5386C21.2613 46.0571 26.715 49.1836 32.7513 48.5959V42.0411C32.7513 41.7925 32.85 41.5541 33.0258 41.3783L36.7755 37.6286C36.9513 37.4528 37.1898 37.354 37.4384 37.354H45.5129C45.7996 36.0903 45.9159 34.7809 45.8634 33.5187C44.2191 35.0223 42.7211 35.9197 42.533 36.0297Z" fill="#081538"/>
</svg>
